<svg xmlns="http://www.w3.org/2000/svg" version="1.1" viewBox="-5.0 -10.0 110.0 135.0">
 <g>
  <path d="m66.004 56.516c0-5.6836 0.003906-13.805-0.003906-13.918-0.097656-4.3047-6.6094-7.5352-15.23-7.5352-8.6875 0-15.234 3.2812-15.234 7.6328v13.82c0 4.3516 6.5508 7.6328 15.234 7.6328 8.6836 0.003906 15.234-3.2812 15.234-7.6328zm-27.641-9.2773c3.8125 2.6641 9.9609 3.3438 14.625 3.0156 0.78125-0.054687 1.3672-0.73047 1.3125-1.5117-0.054687-0.78125-0.73828-1.3711-1.5117-1.3125-0.65234 0.046874-1.332 0.070312-2.0195 0.070312-7.1016 0-12.406-2.5352-12.406-4.8047 0-2.2656 5.3047-4.8047 12.406-4.8047 7.0977 0 12.402 2.5352 12.402 4.8047 0 1.3789-2.0117 2.875-5.1289 3.8164-0.75 0.22656-1.1719 1.0156-0.94531 1.7617 0.22656 0.75 1.0156 1.1719 1.7617 0.94531 1.7305-0.52344 3.1797-1.1914 4.3125-1.9727v2.3594c0 2.2695-5.3047 4.8047-12.406 4.8047s-12.406-2.5352-12.406-4.8047zm0 9.2773v-2.3672c5.9102 4.1289 18.902 4.1289 24.809 0v2.3672c0 2.2695-5.3047 4.8047-12.406 4.8047-7.0977 0-12.402-2.5352-12.402-4.8047z"/>
  <path d="m93.84 60.328c0-2.5625-2.2734-4.5703-4.8477-4.2031-1.2031-2.0508-2.6289-4.1016-4.2422-6.1289 3.6953-4.6523 6.2969-9.2969 7.5547-13.488 1.4453-4.832 1.1172-9.1055-0.95703-12.359-0.88281-1.3906-2.0703-2.5664-3.5234-3.5195 0.25391-2.5117-1.7227-4.6758-4.2227-4.6758-1.5273 0-2.8711 0.8125-3.6172 2.0273-3.5-0.43359-7.5195-0.23438-11.98 0.60547-4.2695-10.629-10.512-16.699-17.238-16.699-2.2383 0-4.4297 0.66016-6.5273 1.9688-0.64844-0.40625-1.418-0.64062-2.2383-0.64062-2.3398 0-4.2461 1.9062-4.2461 4.2461 0 0.78125 0.21484 1.5156 0.58594 2.1484-1.7969 2.4844-3.4062 5.4961-4.8047 8.9805-11.262-2.1133-19.734-0.10938-23.348 5.5625-1.3711 2.1523-1.9805 4.707-1.8242 7.6016-1.3125 0.72266-2.2031 2.1211-2.2031 3.7227 0 2.3477 1.918 4.2539 4.2539 4.2461 1.5312 3.5391 3.7656 7.0156 6.3711 10.285-3.6367 4.5781-6.2227 9.1602-7.4961 13.301-0.23047 0.74609 0.1875 1.5391 0.9375 1.7695 0.74609 0.23047 1.5391-0.1875 1.7695-0.9375 1.1289-3.6719 3.418-7.7617 6.6445-11.906 3.1797 3.6523 6.7461 6.9922 10.195 9.8125 0.70703 5.9336 1.9414 11.613 3.6953 16.68-0.85547 0.15234-1.707 0.28125-2.5547 0.38281-0.66016-1.4922-2.1523-2.5352-3.8828-2.5352-1.7852 0-3.3125 1.1055-3.9414 2.668-6.1758-0.70313-10.902-3.6758-10.98-9.9648-0.007813-0.77734-0.64062-1.3984-1.4141-1.3984-0.78906 0-1.4258 0.64453-1.4141 1.4336 0.078125 6.3828 4.2383 11.766 13.695 12.762 0.53516 1.7305 2.1523 2.9883 4.0547 2.9883 1.9531 0 3.6055-1.3281 4.0938-3.1289 1.1016-0.13281 2.2188-0.30469 3.3477-0.51562 4.2656 10.629 10.508 16.695 17.23 16.695 1.5547 0 3.1016-0.32422 4.6016-0.96094 0.73437 0.60156 1.668 0.96094 2.6875 0.96094 2.3398 0 4.2461-1.9062 4.2461-4.2461 0-0.64844-0.14453-1.2617-0.40625-1.8125 2.3242-2.75 4.375-6.3203 6.1055-10.645 2.9336 0.55078 5.6758 0.82422 8.1914 0.82422 7.1484 0 12.48-2.1875 15.152-6.3828 2.0664-3.2422 2.3984-7.4688 0.98047-12.277 0.92578-0.77734 1.5156-1.9453 1.5156-3.2461zm-67.75 21.902c-0.81641 0-1.4375-0.6875-1.4141-1.4297 0.007813-0.77344 0.64062-1.3984 1.4141-1.3984 0.78125 0 1.4141 0.63281 1.4141 1.4141 0.003906 0.77734-0.63281 1.4141-1.4141 1.4141zm64.918-21.902c0 0.78125-0.63281 1.4141-1.4141 1.4141s-1.4141-0.63281-1.4141-1.4141 0.63281-1.4141 1.4141-1.4141 1.4141 0.63281 1.4141 1.4141zm-7.4102-41.543c0.78125 0 1.4141 0.63281 1.4141 1.4141 0 0.77344-0.62891 1.4141-1.4141 1.4141-0.78125 0-1.4141-0.63281-1.4141-1.4141 0-0.77734 0.63281-1.4141 1.4141-1.4141zm-4.207 1.9766c0.27344 2.0781 2.0547 3.6836 4.207 3.6836 1.1641 0 2.2227-0.47266 2.9922-1.2344 0.97266 0.69141 1.7695 1.5156 2.3711 2.4609 3.1719 4.9805 0.89844 13.168-6.0625 22.102-2.9492-3.3945-6.4023-6.6992-10.188-9.7969-0.69922-5.8906-1.9297-11.566-3.707-16.691 3.8359-0.68359 7.3789-0.86328 10.387-0.52344zm-6.2852 21.25c2.9453 2.5664 5.6328 5.25 7.9766 7.9844-2.3906 2.7969-5.0859 5.4805-7.9844 8.0039 0.41406-5.2734 0.41797-10.684 0.007813-15.988zm-3.5938-6.5469c-4.8008-3.6094-10.027-6.875-15.391-9.5898 4.0781-1.7383 8.1523-3.1055 12.086-4.0195 1.4766 4.1797 2.5781 8.7891 3.3047 13.609zm-27.512-29.422c0.78125 0 1.4141 0.63281 1.4141 1.4141s-0.63281 1.4141-1.4141 1.4141-1.4141-0.63281-1.4141-1.4141c0-0.77734 0.63281-1.4141 1.4141-1.4141zm-1.4883 5.3906c2.7734 1.043 5.7344-1.0234 5.7344-3.9766 0-0.48047-0.082032-0.94141-0.23047-1.3711 1.5586-0.91016 3.1523-1.3711 4.75-1.3711 5.4219 0 10.629 5.25 14.422 14.469-4.6992 1.1211-9.5781 2.8594-14.414 5.0742-4.8164-2.207-9.6953-3.9453-14.43-5.0742 1.2344-2.9961 2.6289-5.5938 4.168-7.75zm-5.1836 10.422c3.9609 0.91797 8.0352 2.2891 12.094 4.0195-5.3438 2.7031-10.578 5.957-15.398 9.582 0.73047-4.8242 1.832-9.4297 3.3047-13.602zm-26.336 13.617c0-0.78125 0.63281-1.4141 1.4141-1.4141s1.4141 0.63281 1.4141 1.4141-0.63281 1.4141-1.4141 1.4141-1.4141-0.63281-1.4141-1.4141zm11.465 14.527c2.3555-2.7539 5.0469-5.4375 7.9766-7.9961-0.41016 5.3008-0.40625 10.707 0.003906 15.988-2.9414-2.5625-5.6328-5.25-7.9805-7.9922zm8.3711-12.035c-3.7695 3.0859-7.2227 6.3867-10.191 9.8086-2.418-3.1016-4.2812-6.125-5.5508-9.0117 0.95703-0.77734 1.5664-1.9648 1.5664-3.2891 0-2.0781-1.5-3.8086-3.4727-4.1719-0.070313-2.168 0.39844-4.0586 1.3984-5.6289 2.9141-4.5742 10.141-6.1445 19.953-4.3867-1.7695 5.1055-3 10.785-3.7031 16.68zm2.6836 1.4688c5.8828-4.6953 12.516-8.8438 19.258-12.051 6.7812 3.2266 13.406 7.3906 19.25 12.055 0.74219 6.9453 0.73828 14.191-0.003906 21.125-6.0391 4.8164-12.734 8.9492-19.258 12.047-6.7734-3.2227-13.402-7.3828-19.254-12.055-0.73438-6.9375-0.73047-14.184 0.007813-21.121zm0.51172 25.105c4.6953 3.5273 9.9336 6.8164 15.398 9.582-3.8594 1.6445-7.9727 3.0664-12.094 4.0234-1.4766-4.1758-2.5781-8.7852-3.3047-13.605zm26.031 30.742c-0.48438 0-0.91406-0.24609-1.168-0.61719-0.007813-0.007812-0.011719-0.019531-0.019531-0.027343-0.60938-0.93359 0.0625-2.1836 1.1875-2.1836 0.78125 0 1.4141 0.63281 1.4141 1.4141s-0.63281 1.4141-1.4141 1.4141zm1.8359-5.2422c-0.55469-0.26953-1.1797-0.41797-1.8359-0.41797-2.6719 0-4.6836 2.4453-4.1641 5.0703-1.0312 0.39062-2.0781 0.58984-3.125 0.58984-5.4219 0-10.629-5.25-14.418-14.465 4.7227-1.1211 9.6016-2.8633 14.422-5.0781 4.7578 2.1797 9.6289 3.9297 14.418 5.0703-1.5273 3.7031-3.332 6.8516-5.2969 9.2305zm6.3164-11.895c-3.9531-0.91797-8.0273-2.2852-12.09-4.0195 5.3633-2.7188 10.594-5.9883 15.395-9.5977-0.72656 4.832-1.832 9.4414-3.3047 13.617zm22.75-3.8125c-2.9141 4.5742-10.141 6.1445-19.953 4.3867 1.75-5.0625 2.9883-10.746 3.6953-16.691 3.7969-3.1055 7.25-6.4141 10.199-9.8047 1.3477 1.7344 2.5508 3.4805 3.582 5.2227-0.70312 0.75781-1.1328 1.7695-1.1328 2.8828 0 2.3438 1.9219 4.2812 4.3164 4.2422 1.1172 3.9141 0.88281 7.2695-0.70703 9.7617z"/>
 </g>
<text x="0.0" y="117.5" font-size="5.0" font-weight="bold" font-family="Arbeit Regular, Helvetica, Arial-Unicode, Arial, Sans-serif" fill="#000000">Created by Icogenix</text><text x="0.0" y="122.5" font-size="5.0" font-weight="bold" font-family="Arbeit Regular, Helvetica, Arial-Unicode, Arial, Sans-serif" fill="#000000">from Noun Project</text></svg>