<svg xmlns="http://www.w3.org/2000/svg" xmlns:xlink="http://www.w3.org/1999/xlink" version="1.1" x="0px" y="0px" viewBox="0 0 100 125" enable-background="new 0 0 100 100" xml:space="preserve"><path d="M85.416,15.75H14.583c-1.93,0-3.5,1.57-3.5,3.5v48.666c0,1.93,1.57,3.5,3.5,3.5h28.761l-0.583,6.258  c-0.025,0.366-0.425,3.576-6.502,3.576c-0.829,0-1.5,0.672-1.5,1.5s0.671,1.5,1.5,1.5h27.48c0.828,0,1.5-0.672,1.5-1.5  s-0.672-1.5-1.5-1.5c-6.077,0-6.477-3.21-6.507-3.64l-0.577-6.194h28.76c1.93,0,3.5-1.57,3.5-3.5V19.25  C88.916,17.32,87.346,15.75,85.416,15.75z M44.298,81.25c1.367-1.648,1.457-3.36,1.456-3.36l0.604-6.474h7.286l0.598,6.384  c0.001,0.033,0.088,1.782,1.468,3.45H44.298z M85.916,67.916c0,0.275-0.225,0.5-0.5,0.5H14.583c-0.276,0-0.5-0.225-0.5-0.5v-5.437  h71.833V67.916z M85.916,59.479H14.083V19.25c0-0.276,0.224-0.5,0.5-0.5h70.833c0.275,0,0.5,0.224,0.5,0.5V59.479z M60.935,27.42  c-0.567-0.603-1.517-0.63-2.12-0.062c-0.603,0.568-0.63,1.518-0.062,2.12l10.073,10.675l-10.073,10.67  c-0.568,0.602-0.541,1.552,0.062,2.121c0.289,0.273,0.659,0.409,1.029,0.409c0.398,0,0.796-0.158,1.091-0.471l11.045-11.699  c0.546-0.578,0.546-1.481,0-2.059L60.935,27.42z M41.188,27.359c-0.603-0.569-1.553-0.542-2.121,0.061l-11.046,11.7  c-0.545,0.578-0.545,1.481,0,2.06l11.046,11.703c0.295,0.313,0.692,0.471,1.091,0.471c0.369,0,0.739-0.136,1.029-0.409  c0.602-0.568,0.63-1.518,0.061-2.121L31.174,40.15l10.074-10.67C41.817,28.877,41.79,27.928,41.188,27.359z M54.971,27.203  c-0.773-0.296-1.641,0.089-1.938,0.863l-8.866,23.098c-0.297,0.773,0.089,1.641,0.863,1.938c0.177,0.067,0.358,0.1,0.537,0.1  c0.603,0,1.172-0.366,1.401-0.963l8.866-23.097C56.131,28.368,55.744,27.5,54.971,27.203z"/><text x="0" y="115" fill="#000000" font-size="5px" font-weight="bold" font-family="'Helvetica Neue', Helvetica, Arial-Unicode, Arial, Sans-serif">Created by Chunk Icons</text><text x="0" y="120" fill="#000000" font-size="5px" font-weight="bold" font-family="'Helvetica Neue', Helvetica, Arial-Unicode, Arial, Sans-serif">from the Noun Project</text></svg>